<svg width="24" height="24" viewBox="0 0 24 24" fill="none" xmlns="http://www.w3.org/2000/svg">
<path d="M17.5368 4.98991C17.6939 4.82389 17.8826 4.69104 18.0918 4.59921C18.3011 4.50737 18.5266 4.45842 18.7551 4.45524C18.9836 4.45207 19.2104 4.49473 19.4222 4.58071C19.6339 4.66669 19.8262 4.79424 19.9878 4.95583C20.1494 5.11741 20.277 5.30975 20.3629 5.52148C20.4489 5.7332 20.4916 5.96002 20.4884 6.18851C20.4852 6.41701 20.4363 6.64255 20.3444 6.8518C20.2526 7.06105 20.1197 7.24977 19.9537 7.4068L14.9444 12.4161C14.9378 12.4227 14.9325 12.4306 14.9289 12.4392C14.9253 12.4479 14.9235 12.4572 14.9235 12.4665C14.9235 12.4759 14.9253 12.4852 14.9289 12.4938C14.9325 12.5025 14.9378 12.5104 14.9444 12.517L19.9537 17.5263C20.1146 17.6845 20.2426 17.8731 20.3303 18.0811C20.4179 18.289 20.4635 18.5123 20.4645 18.738C20.4654 18.9637 20.4217 19.1873 20.3358 19.396C20.2499 19.6047 20.1235 19.7943 19.9639 19.9539C19.8043 20.1135 19.6147 20.2399 19.4061 20.3259C19.1974 20.4119 18.9738 20.4557 18.7481 20.4548C18.5224 20.4539 18.2991 20.4083 18.0911 20.3207C17.8832 20.2331 17.6946 20.1052 17.5363 19.9443L12.527 14.935C12.5204 14.9284 12.5125 14.9231 12.5038 14.9195C12.4952 14.9159 12.4859 14.9141 12.4765 14.9141C12.4672 14.9141 12.4579 14.9159 12.4492 14.9195C12.4406 14.9231 12.4327 14.9284 12.4261 14.935L7.4168 19.9443C7.25854 20.1052 7.06998 20.2332 6.86202 20.3208C6.65405 20.4085 6.43079 20.4541 6.2051 20.4551C5.97942 20.456 5.75578 20.4123 5.54709 20.3263C5.33839 20.2404 5.14877 20.114 4.98917 19.9545C4.82957 19.7949 4.70314 19.6053 4.61717 19.3966C4.5312 19.188 4.4874 18.9643 4.48829 18.7387C4.48919 18.513 4.53475 18.2897 4.62237 18.0817C4.70998 17.8737 4.83791 17.6851 4.99877 17.5268L10.0081 12.5175C10.0147 12.5109 10.02 12.5031 10.0236 12.4944C10.0272 12.4858 10.029 12.4765 10.029 12.4671C10.029 12.4577 10.0272 12.4485 10.0236 12.4398C10.02 12.4312 10.0147 12.4233 10.0081 12.4167L4.99877 7.40737C4.68242 7.0859 4.50591 6.65245 4.5077 6.20144C4.50948 5.75042 4.68941 5.31838 5.00829 4.99943C5.32717 4.68047 5.75917 4.50044 6.21018 4.49855C6.6612 4.49666 7.09469 4.67307 7.41623 4.98934L12.4255 9.99864C12.4321 10.0053 12.44 10.0105 12.4487 10.0141C12.4573 10.0177 12.4666 10.0196 12.476 10.0196C12.4853 10.0196 12.4946 10.0177 12.5033 10.0141C12.5119 10.0105 12.5198 10.0053 12.5264 9.99864L17.5368 4.98991Z" fill="white" fill-opacity="0.7"/>
</svg>
