<svg width="24" height="24" viewBox="0 0 24 24" fill="none" xmlns="http://www.w3.org/2000/svg">
<path fill-rule="evenodd" clip-rule="evenodd" d="M14.3831 15.4451C13.0351 16.5222 11.3258 17.0422 9.60631 16.8984C7.88682 16.7546 6.28765 15.9579 5.13727 14.6718C3.98688 13.3857 3.3726 11.708 3.42058 9.98318C3.46857 8.25835 4.17518 6.61736 5.39529 5.39725C6.61541 4.17713 8.25639 3.47052 9.98122 3.42254C11.7061 3.37455 13.3838 3.98883 14.6699 5.13922C15.9559 6.28961 16.7527 7.88877 16.8965 9.60827C17.0403 11.3278 16.5202 13.0371 15.4431 14.3851L20.5991 19.5401C20.6728 19.6088 20.7319 19.6916 20.7729 19.7836C20.8139 19.8756 20.836 19.9749 20.8377 20.0756C20.8395 20.1763 20.821 20.2763 20.7833 20.3697C20.7455 20.4631 20.6894 20.5479 20.6182 20.6191C20.547 20.6903 20.4621 20.7465 20.3687 20.7842C20.2753 20.8219 20.1753 20.8405 20.0746 20.8387C19.9739 20.8369 19.8746 20.8149 19.7826 20.7739C19.6906 20.7329 19.6078 20.6738 19.5391 20.6001L14.3831 15.4451ZM6.45814 13.8831C5.72418 13.1491 5.22429 12.2139 5.02165 11.1959C4.81901 10.1778 4.92271 9.12253 5.31965 8.16339C5.71659 7.20425 6.38895 6.38431 7.25175 5.80719C8.11456 5.23007 9.12908 4.92167 10.1671 4.92097C11.2051 4.92027 12.2201 5.22731 13.0837 5.80327C13.9472 6.37923 14.6207 7.19826 15.0189 8.15686C15.4172 9.11546 15.5223 10.1706 15.321 11.1889C15.1197 12.2073 14.6211 13.1431 13.8881 13.8781L13.8831 13.8831L13.8781 13.8871C12.8932 14.8697 11.5586 15.4212 10.1673 15.4205C8.77605 15.4197 7.44198 14.8668 6.45814 13.8831Z" fill="white" fill-opacity="0.6"/>
</svg>
