<svg width="24" height="24" viewBox="0 0 24 24" fill="none" xmlns="http://www.w3.org/2000/svg">
<path d="M12 2C6.486 2 2 6.486 2 12C2 17.514 6.486 22 12 22C17.514 22 22 17.514 22 12C22 6.486 17.514 2 12 2ZM8.507 15C8.30762 15.0051 8.10923 14.9702 7.92355 14.8974C7.73786 14.8246 7.56863 14.7154 7.42583 14.5761C7.28303 14.4369 7.16956 14.2705 7.09211 14.0867C7.01466 13.9029 6.97479 13.7054 6.97485 13.506C6.97492 13.3065 7.01492 13.1091 7.0925 12.9254C7.17008 12.7416 7.28366 12.5753 7.42655 12.4361C7.56944 12.297 7.73874 12.1879 7.92448 12.1152C8.11021 12.0425 8.30862 12.0078 8.508 12.013C8.89741 12.0232 9.26743 12.1851 9.5392 12.4642C9.81097 12.7433 9.96298 13.1174 9.96285 13.507C9.96272 13.8965 9.81045 14.2706 9.5385 14.5495C9.26654 14.8284 8.89641 14.9901 8.507 15ZM12.808 8.081C12.2747 7.97379 11.7253 7.97379 11.192 8.081C10.9346 8.13381 10.6831 8.21186 10.441 8.314C10.207 8.414 9.978 8.538 9.763 8.682C9.33835 8.97177 8.97198 9.33881 8.683 9.764L7.024 8.646C7.67534 7.68152 8.59187 6.92614 9.663 6.471C10.0266 6.31752 10.4044 6.20029 10.791 6.121C11.588 5.96006 12.409 5.96006 13.206 6.121C13.9749 6.27622 14.7051 6.5832 15.354 7.024C15.992 7.45733 16.5421 8.00772 16.975 8.646L15.317 9.763C15.1736 9.55118 15.0102 9.35361 14.829 9.173C14.2766 8.61923 13.5739 8.23957 12.808 8.081ZM15.5 15C15.102 14.9999 14.7204 14.8417 14.4391 14.5602C14.1578 14.2787 13.9999 13.897 14 13.499C14.0001 13.101 14.1583 12.7194 14.4398 12.4381C14.7213 12.1568 15.103 11.9989 15.501 11.999C15.899 11.9991 16.2806 12.1573 16.5619 12.4388C16.8432 12.7203 17.0011 13.102 17.001 13.5C17.0009 13.898 16.8427 14.2796 16.5612 14.5609C16.2797 14.8422 15.898 15.0001 15.5 15Z" fill="white" fill-opacity="0.8"/>
</svg>
